<svg xmlns="http://www.w3.org/2000/svg" width="306.741" height="37.021" viewBox="0 0 306.741 37.021">
  <g id="Group_102" data-name="Group 102" transform="translate(-208 -180)">
    <path id="Path_1" data-name="Path 1" d="M1660.61,209.545a11.638,11.638,0,0,0,9.537-4.66l5.073,5.274q-6.037,6.862-14.229,6.861A18.424,18.424,0,0,1,1647.5,211.8a19.044,19.044,0,0,1,.1-26.473A18.109,18.109,0,0,1,1660.812,180a18.66,18.66,0,0,1,14.61,6.708l-4.921,5.632a11.5,11.5,0,0,0-9.334-4.711,10.822,10.822,0,0,0-7.635,2.944,10.306,10.306,0,0,0-3.171,7.936,10.885,10.885,0,0,0,2.993,8.014A9.831,9.831,0,0,0,1660.61,209.545Z" transform="translate(-1328.848)" fill="#fff"/>
    <path id="Path_2" data-name="Path 2" d="M2169.005,191.154h7.914v35.792h-7.914V212.865h-14.1v14.081h-7.914V191.154h7.914v14.952h14.1Z" transform="translate(-1796.564 -10.335)" fill="#fff"/>
    <path id="Path_3" data-name="Path 3" d="M2648.016,191.154v7.015H2631.58V205.9H2647.2v7.015H2631.58v14.03h-7.914V191.154Z" transform="translate(-2238.227 -10.335)" fill="#fff"/>
    <path id="Path_4" data-name="Path 4" d="M2996.752,191.154h7.914v35.792h-7.914Z" transform="translate(-2583.909 -10.335)" fill="#fff"/>
    <path id="Path_5" data-name="Path 5" d="M3182.624,203.033q0,8.6-6.747,11.111l8.979,12.8h-9.74l-7.863-11.419h-5.479v11.419h-7.914V191.154H3167.3q8.268,0,11.794,2.816T3182.624,203.033Zm-9.537,4.25a5.436,5.436,0,0,0,1.471-4.224q0-2.892-1.521-3.968t-5.327-1.075h-5.935v10.6h5.783Q3171.615,208.615,3173.086,207.283Z" transform="translate(-2729.477 -10.335)" fill="#fff"/>
    <path id="Path_6" data-name="Path 6" d="M3602.493,187.962a3.1,3.1,0,0,0-1.141,2.509,2.84,2.84,0,0,0,1.4,2.484,25.327,25.327,0,0,0,6.443,2.176,18.08,18.08,0,0,1,7.838,3.763q2.789,2.51,2.79,7.322a9.7,9.7,0,0,1-3.576,7.809,14.17,14.17,0,0,1-9.41,3,21.674,21.674,0,0,1-15.168-6.3l4.718-5.837q5.732,5.069,10.6,5.069a5.525,5.525,0,0,0,3.424-.947,3.05,3.05,0,0,0,1.243-2.56,2.993,2.993,0,0,0-1.319-2.56,17.136,17.136,0,0,0-5.225-1.92q-6.19-1.485-9.055-3.866t-2.866-7.476a9.3,9.3,0,0,1,3.627-7.86,14.5,14.5,0,0,1,9.055-2.765,21.6,21.6,0,0,1,7.1,1.229,18.985,18.985,0,0,1,6.189,3.482l-4.008,5.837a15.527,15.527,0,0,0-9.537-3.533A4.742,4.742,0,0,0,3602.493,187.962Z" transform="translate(-3135.121)" fill="#fff"/>
    <path id="Path_7" data-name="Path 7" d="M4020.734,198.067v28.879h-7.914V198.067h-10.044v-6.913h28v6.913Z" transform="translate(-3516.037 -10.335)" fill="#fff"/>
    <path id="Path_8" data-name="Path 8" d="M751.417,191.154v7.117H733.764v7.373h15.878v6.81H733.764v7.425h18.212v7.066H725.85V191.154Z" transform="translate(-479.812 -10.335)" fill="#fff"/>
    <path id="Path_9" data-name="Path 9" d="M1139.587,226.946l-3.3-7.732h-14.863l-3.3,7.732h-8.421l15.32-35.792h7.66l15.32,35.792Zm-10.7-25.141-4.464,10.394h8.877Z" transform="translate(-835.474 -10.335)" fill="#fff"/>
    <g id="Group_1" data-name="Group 1" transform="translate(208 180.819)">
      <path id="Path_10" data-name="Path 10" d="M214.267,191.156A6.576,6.576,0,0,1,208,196.261V200.9h4.161a.728.728,0,0,1,.725.731v25.318h7.969V191.156Z" transform="translate(-208 -191.156)" fill="#fff"/>
      <path id="Path_11" data-name="Path 11" d="M396.971,214.147q6.746-2.508,6.747-11.111,0-6.247-3.526-9.063T388.4,191.156H383v6.861h5.8q3.8,0,5.327,1.075t1.522,3.968a5.436,5.436,0,0,1-1.471,4.224q-1.472,1.332-5.529,1.331H383v6.913h5.347l7.863,11.418h9.74Z" transform="translate(-370.146 -191.156)" fill="#fff"/>
    </g>
  </g>
</svg>
